Coordinates
version=1
nRows=19
nColumns=24
inDegrees=yes

Units are S.I. units (second, meters, Newtons, ...)
Angles are in degrees.

endheader
time	pelvis_tilt	pelvis_list	pelvis_rotation	pelvis_tx	pelvis_ty	pelvis_tz	hip_flexion_r	hip_adduction_r	hip_rotation_r	knee_angle_r	ankle_angle_r	subtalar_angle_r	mtp_angle_r	hip_flexion_l	hip_adduction_l	hip_rotation_l	knee_angle_l	ankle_angle_l	subtalar_angle_l	mtp_angle_l	lumbar_extension	lumbar_bending	lumbar_rotation
      0.84600000	      0.81377957	      0.67453887	      0.52656846	     -0.46841718	      1.02445477	      0.32113386	      6.00380361	      3.67895311	     -1.64272897	    -12.65774929	      4.50020901	    -13.71585074	      7.22481725	     14.63899274	     -1.80220685	     -3.54207681	    -66.02173672	      1.23827231	    -18.23173675	     -1.47915739	     -3.64891855	     -0.83075448	      1.93969215
      0.85016667	      0.79833021	      0.79501861	      0.31746341	     -0.46331103	      1.02506193	      0.32174995	      5.54369139	      3.57999398	     -1.53332477	    -12.32440866	      4.57348580	    -13.54878811	      7.24317827	     15.11625546	     -1.66046180	     -3.72199535	    -65.58004578	      1.50368273	    -17.62495303	     -1.37710241	     -3.64163862	     -0.95787516	      2.29250359
      0.85433333	      0.77333726	      0.90494133	      0.11771816	     -0.45822837	      1.02559915	      0.32236931	      5.08985691	      3.49172294	     -1.42277592	    -11.97810628	      4.65774218	    -13.37984732	      7.26513594	     15.60381733	     -1.53700544	     -3.89767974	    -65.11108081	      1.76946015	    -16.99916218	     -1.24529611	     -3.63541487	     -1.09661301	      2.66978556
      0.85850000	      0.77248580	      1.02073109	     -0.08868971	     -0.45315193	      1.02614025	      0.32296984	      4.61434695	      3.39272985	     -1.31436787	    -11.63874054	      4.73753612	    -13.21026479	      7.28729727	     16.04732189	     -1.40695422	     -4.07662272	    -64.58656606	      2.02907439	    -16.34331335	     -1.10312286	     -3.65275320	     -1.22717953	      3.02086250
      0.86266667	      0.76551322	      1.12384347	     -0.29571563	     -0.44810169	      1.02661427	      0.32355382	      4.14393315	      3.30494021	     -1.19466024	    -11.28771720	      4.76407544	    -13.04846899	      7.32739244	     16.49136237	     -1.29166245	     -4.25327037	    -64.02609114	      2.26202136	    -15.70396230	     -0.80920528	     -3.66964886	     -1.33141723	      3.47262970
      0.86683333	      0.77099004	      1.22866584	     -0.49385228	     -0.44305209	      1.02705236	      0.32413535	      3.66889922	      3.21294824	     -1.09282829	    -10.96179037	      4.88975293	    -12.89786110	      7.34988477	     16.91127397	     -1.18129686	     -4.43190830	    -63.42695577	      2.53124367	    -15.01242839	     -0.64609207	     -3.69127965	     -1.45867995	      3.71834987
      0.87100000	      0.77865480	      1.32088555	     -0.69297245	     -0.43801305	      1.02744911	      0.32469920	      3.18857714	      3.13173043	     -0.98906638	    -10.62345420	      4.96739607	    -12.74920617	      7.37196962	     17.31806344	     -1.08407349	     -4.60543067	    -62.79084699	      2.78379859	    -14.32567358	     -0.46910660	     -3.72100946	     -1.55936627	      4.04773133
      0.87516667	      0.75882239	      1.40340769	     -0.88453024	     -0.43299213	      1.02775500	      0.32524331	      2.74092432	      3.05907774	     -0.87709381	    -10.28907109	      5.03914977	    -12.61822283	      7.39361344	     17.74845854	     -0.99934272	     -4.77413771	    -62.12173393	      3.02233080	    -13.65855443	     -0.28034957	     -3.71978099	     -1.65152114	      4.37855295
      0.87933333	      0.73831310	      1.48845874	     -1.07447104	     -0.42796739	      1.02801661	      0.32577422	      2.29675203	      2.98113095	     -0.76931856	     -9.95980857	      5.11336140	    -12.49228542	      7.41457842	     18.16465284	     -0.91108386	     -4.94090361	    -61.40864832	      3.24812753	    -13.00386957	     -0.08456843	     -3.71614638	     -1.74472146	      4.69881572
      0.88350000	      0.72054554	      1.58564459	     -1.26599150	     -0.42296970	      1.02824689	      0.32627745	      1.86460542	      2.88424065	     -0.68175067	     -9.65512099	      5.14709007	    -12.36499334	      7.42768965	     18.56105985	     -0.80290377	     -5.10254107	    -60.64030777	      3.42618254	    -12.39728116	      0.04515078	     -3.71450403	     -1.85141291	      4.92857263
      0.88766667	      0.71519695	      1.63274437	     -1.44544382	     -0.41795090	      1.02842785	      0.32678689	      1.38340441	      2.84649013	     -0.54778867	     -9.27873567	      5.17953132	    -12.30588580	      7.47380865	     18.94045889	     -0.76073472	     -5.26168345	    -59.86771193	      3.63938753	    -11.80448885	      0.58933271	     -3.73058390	     -1.89761405	      5.48234229
      0.89183333	      0.69343248	      1.68822589	     -1.61159974	     -0.41297773	      1.02852391	      0.32725623	      0.95557632	      2.79347967	     -0.45782952	     -8.98108884	      5.32433976	    -12.17104590	      7.49202097	     19.33133758	     -0.70391658	     -5.40510247	    -59.06285851	      3.86639969	    -11.15941761	      0.78624377	     -3.73747928	     -1.95780447	      5.62144090
      0.89600000	      0.68307716	      1.76540801	     -1.77653775	     -0.40799178	      1.02863574	      0.32769533	      0.51614912	      2.71129531	     -0.38688915	     -8.67830971	      5.36268762	    -12.05997106	      7.50208392	     19.68169781	     -0.61199538	     -5.53990928	    -58.18392670	      4.01436203	    -10.61319278	      0.91611041	     -3.74396725	     -2.04293390	      5.81962862
      0.90016667	      0.68256689	      1.78488227	     -1.92713672	     -0.40300600	      1.02866331	      0.32814193	      0.04134876	      2.69639830	     -0.27707456	     -8.33140749	      5.47083697	    -11.97958829	      7.51723647	     20.02566960	     -0.59684893	     -5.67283076	    -57.32290605	      4.22885870	    -10.02907802	      1.13511764	     -3.77785195	     -2.05842121	      6.16715814
      0.90433333	      0.65189634	      1.85383773	     -2.07795572	     -0.39802343	      1.02866835	      0.32853984	     -0.37150489	      2.61967392	     -0.21036850	     -8.03750819	      5.50657789	    -11.88845017	      7.52514958	     20.36969103	     -0.50745169	     -5.78873560	    -56.36906503	      4.34125663	     -9.55162369	      1.26592842	     -3.76199220	     -2.13629299	      6.35354272
      0.90850000	      0.63840976	      1.88518870	     -2.21449165	     -0.39304631	      1.02862293	      0.32892919	     -0.81627599	      2.58494106	     -0.13243638	     -7.72075585	      5.57996792	    -11.80299855	      7.53262827	     20.69219105	     -0.46533581	     -5.89855758	    -55.41214603	      4.48979887	     -9.04407133	      1.40334444	     -3.77617091	     -2.16828533	      6.59191640
      0.91266667	      0.64835383	      1.88764580	     -2.34036206	     -0.38808139	      1.02854854	      0.32930023	     -1.29659076	      2.58102257	     -0.03484445	     -7.38660658	      5.68933862	    -11.74430218	      7.54224854	     20.98058401	     -0.45428197	     -5.99868818	    -54.43958125	      4.65186592	     -8.56551209	      1.63305061	     -3.82527210	     -2.15798080	      6.92188122
      0.91683333	      0.58303151	      1.90059043	     -2.45357555	     -0.38310565	      1.02835220	      0.32965230	     -1.68994124	      2.56917752	      0.07504970	     -7.06086794	      5.70038765	    -11.77422310	      7.62577328	     21.33181962	     -0.42700078	     -6.07899017	    -53.40664807	      4.67070022	     -8.20131671	      6.42582137	     -3.77544561	     -2.16734577	      7.13625600
      0.92100000	      0.55509069	      1.93014864	     -2.56118607	     -0.37813788	      1.02817535	      0.32994935	     -2.09825121	      2.52773308	      0.10004437	     -6.78873635	      5.79696728	    -11.64858575	      7.62710107	     21.62058476	     -0.36380434	     -6.14163711	    -52.32928048	      4.74645100	     -7.83413322	      6.43627879	     -3.77191263	     -2.19934349	      7.27572896
